<svg aria-hidden="true" style="position: absolute; width: 0; height: 0; overflow: hidden;" version="1.1" xmlns="http://www.w3.org/2000/svg" xmlns:xlink="http://www.w3.org/1999/xlink">
<defs>
<symbol id="cart" viewBox="0 0 32 32">
<title>cart</title>
<path d="M29.968 9.856v0l-3.968 8.8c-0.192 0.432-0.608 0.752-1.12 0.784v0l-11.392 0.752 0.656 1.888h12.416c1.456 0 2.64 1.184 2.64 2.64s-1.184 2.64-2.64 2.64c-1.456 0-2.64-1.184-2.64-2.64h-12.32c0 1.456-1.184 2.64-2.64 2.64s-2.64-1.184-2.64-2.64c0-1.456 1.184-2.64 2.64-2.64h2.384l-5.088-14.528h-3.024c-0.72 0-1.312-0.576-1.312-1.312s0.592-1.328 1.312-1.328h3.968c0.576 0 1.056 0.384 1.248 0.896v0l0.768 2.192h19.536c0.736 0 1.328 0.592 1.328 1.312 0 0.208-0.048 0.384-0.112 0.544zM10.144 10.64l2.432 6.976 11.344-0.768 2.8-6.208h-16.576z"></path>
</symbol>
<symbol id="facebook" viewBox="0 0 32 32">
<title>facebook</title>
<path d="M22.168 2.428c0 1.633 0 4.546 0 4.546s-3.354-0.331-4.193 0.949c-0.452 0.706-0.188 2.759-0.221 4.237 1.457 0 2.979 0 4.436 0-0.375 1.721-0.64 2.891-0.916 4.392-1.269 0-3.553 0-3.553 0v14.124c0 0-4.182 0-6.157 0 0-4.359 0-9.434 0-14.069-0.96 0-1.666 0-2.615 0 0-1.633 0-2.814 0-4.447 0.927 0 1.655 0 2.582 0 0.143-3.255 0.188-6.477 1.799-8.11 1.821-1.843 3.553-1.622 8.839-1.622z"></path>
</symbol>
<symbol id="find" viewBox="0 0 32 32">
<title>find</title>
<path d="M29.304 25.576c0.48 0.472 0.776 1.136 0.776 1.864 0 1.456-1.184 2.64-2.64 2.64-0.728 0-1.392-0.296-1.864-0.776v0l-7.744-7.736c-1.568 0.928-3.392 1.472-5.352 1.472-5.832 0-10.56-4.728-10.56-10.56s4.728-10.56 10.56-10.56c5.832 0 10.56 4.728 10.56 10.56 0 1.96-0.544 3.784-1.472 5.352l7.736 7.744zM12.48 4.56c-4.376 0-7.92 3.544-7.92 7.92s3.544 7.92 7.92 7.92c4.376 0 7.92-3.544 7.92-7.92s-3.544-7.92-7.92-7.92z"></path>
</symbol>
<symbol id="instagram" viewBox="0 0 32 32">
<title>instagram</title>
<path d="M27.086 30.629h-21.943c-2.023 0-3.657-1.634-3.657-3.657v-21.943c0-2.023 1.634-3.657 3.657-3.657h21.943c2.023 0 3.657 1.634 3.657 3.657v21.943c0 2.023-1.634 3.657-3.657 3.657zM16.114 10.331c-2.286 0-4.24 1.349-5.143 3.291v0c-0.011 0.023-0.023 0.046-0.023 0.057-0.057 0.126-0.103 0.251-0.149 0.377-0.023 0.057-0.046 0.114-0.069 0.171-0.046 0.126-0.080 0.263-0.114 0.389-0.011 0.057-0.034 0.126-0.046 0.183-0.023 0.137-0.046 0.274-0.069 0.423 0 0.057-0.023 0.114-0.023 0.171-0.023 0.194-0.034 0.4-0.034 0.606 0 3.131 2.537 5.669 5.669 5.669s5.669-2.537 5.669-5.669c0-0.206-0.011-0.411-0.034-0.606 0-0.057-0.023-0.114-0.023-0.171-0.023-0.149-0.046-0.286-0.069-0.423-0.023-0.057-0.034-0.126-0.046-0.183-0.034-0.126-0.069-0.263-0.114-0.389-0.023-0.057-0.046-0.114-0.069-0.171-0.046-0.126-0.091-0.251-0.149-0.377 0-0.011-0.011-0.034-0.023-0.057v0c-0.903-1.943-2.857-3.291-5.143-3.291zM27.451 6.126c0-0.811-0.651-1.463-1.463-1.463h-2.926c-0.811 0-1.463 0.651-1.463 1.463v2.926c0 0.811 0.651 1.463 1.463 1.463h2.926c0.811 0 1.463-0.651 1.463-1.463v-2.926zM27.451 13.623h-2.697c0.206 0.754 0.32 1.554 0.32 2.377 0 4.949-4.011 8.96-8.96 8.96s-8.96-4.011-8.96-8.96c0-0.823 0.114-1.623 0.32-2.377h-2.697v12.251c0 0.811 0.651 1.463 1.463 1.463h19.749c0.811 0 1.463-0.651 1.463-1.463v-12.251z"></path>
</symbol>
<symbol id="pinterest" viewBox="0 0 32 32">
<title>pinterest</title>
<path d="M14.4 19.697c-0.232 0.927-0.463 1.887-0.706 2.825-0.232 0.938-0.441 1.876-0.783 2.726-0.574 1.423-1.302 2.781-2.262 3.895-0.629 0.728-0.497 0.441-0.684 0.397-0.154-0.033-0.166-0.177-0.188-0.375-0.154-1.126-0.055-2.428 0-3.686 0.066-1.446 0.375-2.637 0.651-3.84 0.541-2.273 1.048-4.502 1.589-6.797 0.033-0.154 0.132-0.408 0.099-0.486-0.243-0.64-0.408-1.214-0.474-1.876-0.077-0.772-0.022-1.49 0.154-2.152 0.298-1.17 1.004-2.196 2.086-2.582 0.695-0.232 1.457-0.121 1.92 0.154 0.474 0.276 0.806 0.728 0.949 1.368 0.166 0.684 0.044 1.49-0.088 2.086-0.287 1.346-0.673 2.361-1.026 3.652-0.177 0.651-0.375 1.313-0.21 1.997 0.143 0.64 0.474 1.081 0.938 1.412 0.463 0.342 1.015 0.53 1.788 0.508 1.357-0.055 2.295-0.916 2.924-1.732 1.004-1.313 1.622-3.079 1.854-5.175 0.066-0.673 0.121-1.457 0.077-2.218-0.099-1.423-0.541-2.56-1.247-3.443-0.673-0.839-1.622-1.512-2.77-1.887s-2.737-0.497-4.138-0.254c-2.56 0.43-4.359 1.887-5.418 3.895-0.563 1.048-0.927 2.262-0.927 3.763 0 1.159 0.287 2.052 0.75 2.759 0.143 0.221 0.353 0.408 0.497 0.662 0.21 0.353-0.022 0.894-0.132 1.28-0.121 0.474-0.132 1.114-0.673 1.126-0.232 0.011-0.519-0.154-0.706-0.265-1.446-0.794-2.317-2.24-2.67-4.127-0.221-1.137-0.221-2.461 0-3.564 0.21-1.070 0.596-2.052 1.026-2.847 0.905-1.666 2.218-2.99 3.818-3.939 1.236-0.728 2.626-1.236 4.314-1.479 0.563-0.088 1.137-0.121 1.766-0.143 1.843-0.088 3.52 0.32 4.778 0.883 1.335 0.596 2.394 1.39 3.288 2.372 0.927 1.015 1.6 2.185 2.030 3.652 0.221 0.761 0.43 1.578 0.43 2.527 0 0.938-0.199 1.777-0.331 2.615-0.53 3.112-2.008 5.672-4.237 7.117-0.541 0.353-1.192 0.684-1.942 0.894-0.728 0.221-1.567 0.375-2.472 0.32-0.872-0.066-1.589-0.298-2.185-0.64s-1.103-0.75-1.457-1.379z"></path>
</symbol>
<symbol id="twitter" viewBox="0 0 32 32">
<title>twitter</title>
<path d="M21.154 4.114c2.331-0.046 3.566 0.811 4.743 1.886 1.006-0.091 2.309-0.651 3.074-1.040 0.251-0.137 0.503-0.274 0.754-0.411-0.446 1.189-1.040 2.114-1.954 2.823-0.194 0.16-0.4 0.366-0.651 0.469 0 0 0 0.011 0 0.011 1.303-0.011 2.377-0.594 3.394-0.914 0 0 0 0 0 0.011-0.537 0.846-1.257 1.714-2.034 2.331-0.309 0.251-0.629 0.503-0.937 0.743 0.011 1.383-0.023 2.697-0.274 3.863-1.509 6.731-5.474 11.303-11.76 13.269-2.263 0.697-5.909 0.994-8.491 0.354-1.291-0.32-2.446-0.686-3.531-1.154-0.606-0.263-1.166-0.56-1.703-0.88-0.171-0.103-0.354-0.217-0.526-0.32 0.583 0.011 1.269 0.171 1.92 0.069 0.583-0.091 1.166-0.069 1.714-0.183 1.36-0.297 2.56-0.697 3.6-1.303 0.503-0.297 1.269-0.64 1.623-1.063-0.674 0.011-1.28-0.149-1.783-0.32-1.943-0.686-3.074-1.954-3.806-3.84 0.583 0.057 2.286 0.217 2.674-0.126-0.743-0.034-1.451-0.469-1.954-0.789-1.566-0.971-2.846-2.606-2.834-5.131 0.206 0.091 0.411 0.194 0.617 0.286 0.389 0.171 0.789 0.263 1.257 0.354 0.206 0.046 0.594 0.16 0.823 0.069-0.011 0-0.023 0-0.034 0-0.297-0.343-0.789-0.583-1.097-0.96-0.994-1.246-1.943-3.166-1.349-5.44 0.16-0.583 0.4-1.097 0.651-1.566 0.011 0 0.023 0.011 0.023 0.011 0.126 0.251 0.377 0.423 0.549 0.629 0.514 0.64 1.143 1.211 1.783 1.714 2.194 1.714 4.171 2.766 7.337 3.543 0.8 0.194 1.737 0.354 2.697 0.354-0.274-0.789-0.183-2.057 0.023-2.823 0.537-1.909 1.703-3.291 3.406-4.023 0.4-0.183 0.857-0.309 1.326-0.411 0.251-0.034 0.491-0.057 0.731-0.091z"></path>
</symbol>
</defs>
</svg>
